<?xml version="1.0" encoding="UTF-8"?>
<svg width="40px" height="40px" viewBox="0 0 40 40" version="1.1" xmlns="http://www.w3.org/2000/svg" xmlns:xlink="http://www.w3.org/1999/xlink">
    <title>兑换</title>
    <g id="0630" stroke="none" stroke-width="1" fill="none" fill-rule="evenodd">
        <g id="PC-切图" transform="translate(-199.000000, -164.000000)">
            <g id="编组-27" transform="translate(199.000000, 164.000000)">
                <g id="编组-30" fill="#FFFFFF">
                    <circle id="椭圆形" cx="20" cy="20" r="20"></circle>
                </g>
                <g id="qiehuan" transform="translate(9.000000, 11.000000)" fill="#ED1F7A" fill-rule="nonzero" stroke="#FFFFFF" stroke-width="0.5">
                    <path d="M21.8604472,11.1273425 C21.3778088,10.6666855 20.5957755,10.6666855 20.1131371,11.1273425 L18.6592685,12.5155271 C18.6444223,12.5297432 18.6189539,12.5197166 18.6189539,12.49964 L18.6189539,4.14814893 C18.6189539,1.85717356 16.6739987,0 14.27464,0 C12.0928615,0 10.2871792,1.53552332 9.97743391,3.53641094 C9.97576591,3.54739817 9.96588976,3.55555548 9.95423822,3.55556968 L9.95379357,3.55556968 C9.94076066,3.55556967 9.93019157,3.56562934 9.93017793,3.57804707 L9.93017793,13.6296288 C9.93017793,14.6114317 9.09654099,15.4073901 8.06832206,15.4073901 C7.03995492,15.4073901 6.20644149,14.6114317 6.20644149,13.6296288 L6.20644149,2.39284148 C6.20644149,2.38041419 6.20486053,2.36765739 6.20463821,2.3561951 C6.19890721,2.06029383 6.03379537,1.69260613 5.79729316,1.46679665 C5.31255503,1.00397429 4.35911072,1.06949999 3.87434789,1.53232235 L0.363572126,4.88451286 C-0.121190709,5.34742936 -0.121190709,6.09779752 0.363572126,6.56057281 C0.84833496,7.02353638 1.63419717,7.02353638 2.11896001,6.56057281 L3.68342188,5.06682683 C3.69826811,5.0526343 3.72373644,5.06266087 3.72373644,5.08271399 L3.72373644,13.6296288 C3.72373644,15.9206042 5.6688152,17.7777778 8.06832206,17.7777778 C10.2498536,17.7777778 12.0556347,16.2422309 12.36538,14.2413668 C12.367048,14.2303796 12.3769241,14.2222223 12.3885757,14.2222081 L12.3890203,14.2222081 C12.3952836,14.2222081 12.4012903,14.2198375 12.4057191,14.2156177 C12.4101479,14.211398 12.412636,14.2056748 12.412636,14.1997072 L12.412636,4.14814893 C12.412636,3.16634605 13.2462976,2.37038763 14.27464,2.37038763 C15.302859,2.37038763 16.1364959,3.16634605 16.1364959,4.14814893 L16.1364959,15.3849128 C16.1364959,15.39734 16.1390403,15.4548633 16.1403248,15.466255 C16.1699679,15.7236034 16.2918008,16.0497021 16.4984377,16.2470324 C16.9809526,16.7076894 17.883559,16.5926193 18.3660739,16.1319387 L21.8604472,12.7955648 C22.3428139,12.3349549 22.3428139,11.5880466 21.8604472,11.127366 L21.8604472,11.1273425 Z" id="路径"></path>
                </g>
            </g>
        </g>
    </g>
</svg>