<?xml version="1.0" encoding="UTF-8"?>
<svg width="38px" height="38px" viewBox="0 0 38 38" version="1.1" xmlns="http://www.w3.org/2000/svg" xmlns:xlink="http://www.w3.org/1999/xlink">
    <title>Hub-Default</title>
    <g id="0630" stroke="none" stroke-width="1" fill="none" fill-rule="evenodd">
        <g id="PC-切图" transform="translate(-30.000000, -198.000000)">
            <g id="Hub" transform="translate(30.000000, 198.000000)">
                <circle id="椭圆形备份-3" fill="#F5EFF4" cx="19" cy="19" r="19"></circle>
                <g id="编组-6" transform="translate(9.000000, 7.000000)" stroke="#000000" stroke-width="2">
                    <path d="M12.5,9 C14.2949254,9 15.9199254,9.72753728 17.0961941,10.9038059 C18.2724627,12.0800746 19,13.7050746 19,15.5 L19,15.5 L19,20 C19,20.5522847 18.7761424,21.0522847 18.4142136,21.4142136 C18.0522847,21.7761424 17.5522847,22 17,22 L17,22 L3,22 C2.44771525,22 1.94771525,21.7761424 1.58578644,21.4142136 C1.22385763,21.0522847 1,20.5522847 1,20 L1,20 L1,15.5 C1,13.7050746 1.72753728,12.0800746 2.90380592,10.9038059 C4.08007456,9.72753728 5.70507456,9 7.5,9 L7.5,9 Z" id="矩形"></path>
                    <path d="M11.5,1 C12.1903559,1 12.8153559,1.27982203 13.267767,1.73223305 C13.720178,2.18464406 14,2.80964406 14,3.5 L14,3.5 L14,5 C14,5.27614237 13.8880712,5.52614237 13.7071068,5.70710678 C13.5261424,5.88807119 13.2761424,6 13,6 L13,6 L7,6 C6.72385763,6 6.47385763,5.88807119 6.29289322,5.70710678 C6.11192881,5.52614237 6,5.27614237 6,5 L6,5 L6,3.5 C6,2.80964406 6.27982203,2.18464406 6.73223305,1.73223305 C7.18464406,1.27982203 7.80964406,1 8.5,1 L8.5,1 Z" id="矩形备份-10" transform="translate(10.000000, 3.500000) scale(1, -1) translate(-10.000000, -3.500000) "></path>
                    <polyline id="路径-3" stroke-linecap="round" stroke-linejoin="round" points="7 13 9 16 7 19"></polyline>
                    <polyline id="路径-3备份" stroke-linecap="round" stroke-linejoin="round" points="12 13 14 16 12 19"></polyline>
                </g>
            </g>
        </g>
    </g>
</svg>