<?xml version="1.0" encoding="UTF-8"?>
<svg width="38px" height="38px" viewBox="0 0 38 38" version="1.1" xmlns="http://www.w3.org/2000/svg" xmlns:xlink="http://www.w3.org/1999/xlink">
    <title>Doc-Default</title>
    <g id="0630" stroke="none" stroke-width="1" fill="none" fill-rule="evenodd">
        <g id="PC-切图" transform="translate(-30.000000, -370.000000)">
            <g id="Doc" transform="translate(30.000000, 370.000000)">
                <circle id="椭圆形备份-6" fill="#F5EFF4" cx="19" cy="19" r="19"></circle>
                <g id="编组-3" transform="translate(6.000000, 1.000000)" stroke="#000000" stroke-width="2">
                    <path d="M6.56508512,6.02337999 C6.73427968,5.96846474 6.91650742,5.96846474 7.08570199,6.02337999 L7.08570199,6.02337999 L16.2615293,9.00156556 C16.5184375,9.08494989 16.7198501,9.28636253 16.8032344,9.5432707 L16.8032344,9.5432707 L19.78142,18.719098 C19.8533022,18.9405679 19.8286109,19.1702074 19.7305815,19.3624498 C19.6325522,19.5546923 19.4611848,19.7095378 19.2397149,19.78142 C19.0705203,19.8363353 18.8882926,19.8363353 18.719098,19.78142 L18.719098,19.78142 L9.5432707,16.8032344 C9.28636253,16.7198501 9.08494989,16.5184375 9.00156556,16.2615293 L9.00156556,16.2615293 L6.02337999,7.08570199 C5.9514978,6.86423205 5.97618912,6.63459265 6.07421846,6.44235018 C6.17224781,6.25010771 6.34361519,6.09526218 6.56508512,6.02337999 Z" id="矩形" transform="translate(12.902400, 12.902400) rotate(-45.000000) translate(-12.902400, -12.902400) "></path>
                    <polyline id="路径-2备份-2" stroke-linecap="round" points="2.7648 17.9998095 12.8612121 23.5294095 23.04 17.9998095"></polyline>
                    <polyline id="路径-2备份-3" stroke-linecap="round" points="2.7648 23.04 12.8612121 28.5696 23.04 23.04"></polyline>
                </g>
            </g>
        </g>
    </g>
</svg>