<?xml version="1.0" encoding="UTF-8"?>
<svg width="38px" height="38px" viewBox="0 0 38 38" version="1.1" xmlns="http://www.w3.org/2000/svg" xmlns:xlink="http://www.w3.org/1999/xlink">
    <title>Explorer-Default</title>
    <g id="0630" stroke="none" stroke-width="1" fill="none" fill-rule="evenodd">
        <g id="PC-切图" transform="translate(-30.000000, -312.000000)">
            <g id="Explorer" transform="translate(30.000000, 312.000000)">
                <circle id="椭圆形备份-5" fill="#F5EFF4" cx="19" cy="19" r="19"></circle>
                <g id="ziyuan97" transform="translate(7.000000, 7.000000)" fill="#000000" stroke="#000000" stroke-width="0.3">
                    <path d="M21.1622993,7.88179472 C23.1694518,8.9747836 24.2816225,10.4293515 24.3,11.9917137 C24.3,15.3671238 19.0249501,17.9998854 12.3028932,17.9998854 C11.5645284,18.0022377 10.8266299,17.9683723 10.0917618,17.8985133 C9.6106436,17.8541934 9.25793493,17.4433284 9.30405359,16.9808253 C9.3502111,16.5183222 9.7779063,16.1793699 10.2591411,16.2237272 C10.9407415,16.2922793 11.6258386,16.3239044 12.3112466,16.3185278 C18.3474293,16.3185278 22.5605844,14.0330448 22.5539017,11.9788695 C22.5539017,11.0578211 21.7628521,10.1256834 20.3360876,9.36055755 C19.9343463,9.12398537 19.7990986,8.62459255 20.0299638,8.22978285 C20.2607903,7.8351225 20.7750114,7.68633144 21.1941977,7.8930334 L21.1622993,7.88179472 Z" id="Fill-5"></path>
                    <path d="M11.9613993,0 C15.5221944,0 18.2995532,5.06359448 18.2995532,11.5140635 C18.3043192,12.223048 18.2709571,12.9317342 18.1995459,13.6375123 C18.1784731,13.8588649 18.0652312,14.0632162 17.8849109,14.2054904 C17.7045906,14.3479136 17.471923,14.4166645 17.2380737,14.3965687 C17.0321902,14.3790827 16.8394231,14.2932932 16.6938828,14.1542254 C16.5078511,13.9781351 16.4139884,13.7328837 16.4378578,13.4850225 C16.5092297,12.8308076 16.5426311,12.1733863 16.5378651,11.5156667 C16.5378651,5.72332738 14.1131512,1.69159319 11.9597056,1.6867836 C10.9897649,1.6867836 10.0064322,2.44427404 9.19759023,3.81500476 C8.98048106,4.22993369 8.44952469,4.40020779 8.01069792,4.19529725 L7.95133951,4.16483657 C7.52633809,3.93792872 7.3748107,3.42878419 7.61220492,3.02537588 C8.79232242,1.0672424 10.3337108,0.0128255506 11.9613993,0 Z" id="Fill-6"></path>
                    <path d="M3.43866677,15.5450272 C2.79151898,15.2056906 2.19653923,14.7809863 1.67109096,14.2831204 C0.835314746,13.5461126 0.341252758,12.5164584 0.3,11.4253619 C0.3,8.04053269 5.57569171,5.40042434 12.2960845,5.40042434 C13.0347497,5.39589386 13.7731042,5.42764465 14.5083899,5.49548951 C14.9895556,5.54012034 15.3421851,5.9521318 15.2959214,6.41588807 C15.2497743,6.87968178 14.8223304,7.21958001 14.3412036,7.17498662 C13.6596008,7.10639292 12.9746575,7.07464213 12.2894033,7.07992145 C6.25457538,7.07992145 2.05405795,9.38316438 2.04737672,11.4318019 C2.04737672,12.3488681 2.83840418,13.2901593 4.26636335,14.0574202 C4.64222182,14.3043126 4.75953192,14.7873889 4.5364485,15.1694468 C4.31340393,15.5514672 3.82419749,15.7056158 3.41027151,15.5240971 L3.43866677,15.5450272 Z" id="Fill-7"></path>
                    <path d="M12.0507754,23.4 C10.9036238,23.3658014 9.82052592,22.8912672 9.04979816,22.0851031 C7.04519077,20.1847314 5.70033704,16.3742648 5.70033704,11.8968502 C5.69621088,11.1884763 5.72996681,10.4803632 5.80180133,9.77515586 C5.82620463,9.47247179 6.02115596,9.20573726 6.31159847,9.07795802 C6.60219816,8.95006701 6.94294055,8.98121087 7.20253508,9.15902147 C7.46193313,9.33698108 7.59978624,9.63400264 7.56296516,9.93553186 C7.49156291,10.5892177 7.45827853,11.2460701 7.46303344,11.9032578 C7.46303344,17.6909126 9.86858589,21.7305995 12.0304983,21.7241919 C12.9981815,21.7241919 13.9792257,20.9656004 14.786185,19.5976919 C14.8859596,19.394549 15.0672749,19.2378238 15.2896947,19.1621621 C15.5121145,19.0866122 15.7572478,19.0984215 15.9703149,19.1951687 C15.9977834,19.2075368 16.024348,19.2213578 16.0498516,19.2369298 C16.4736674,19.4629463 16.6248421,19.971232 16.3881576,20.3739043 C15.2040277,22.3288523 13.6815918,23.3840183 12.0507754,23.3952316 L12.0507754,23.4 Z" id="Fill-8"></path>
                    <path d="M21.1622993,7.88179472 C23.1694518,8.9747836 24.2816225,10.4293515 24.3,11.9917137 C24.3,15.3671238 19.0249501,17.9998854 12.3028932,17.9998854 C11.5645284,18.0022377 10.8266299,17.9683723 10.0917618,17.8985133 C9.6106436,17.8541934 9.25793493,17.4433284 9.30405359,16.9808253 C9.3502111,16.5183222 9.7779063,16.1793699 10.2591411,16.2237272 C10.9407415,16.2922793 11.6258386,16.3239044 12.3112466,16.3185278 C18.3474293,16.3185278 22.5605844,14.0330448 22.5539017,11.9788695 C22.5539017,11.0578211 21.7628521,10.1256834 20.3360876,9.36055755 C19.9343463,9.12398537 19.7990986,8.62459255 20.0299638,8.22978285 C20.2607903,7.8351225 20.7750114,7.68633144 21.1941977,7.8930334 L21.1622993,7.88179472 Z" id="Fill-9"></path>
                    <path d="M11.9613993,0 C15.5221944,0 18.2995532,5.06359448 18.2995532,11.5140635 C18.3043192,12.223048 18.2709571,12.9317342 18.1995459,13.6375123 C18.1784731,13.8588649 18.0652312,14.0632162 17.8849109,14.2054904 C17.7045906,14.3479136 17.471923,14.4166645 17.2380737,14.3965687 C17.0321902,14.3790827 16.8394231,14.2932932 16.6938828,14.1542254 C16.5078511,13.9781351 16.4139884,13.7328837 16.4378578,13.4850225 C16.5092297,12.8308076 16.5426311,12.1733863 16.5378651,11.5156667 C16.5378651,5.72332738 14.1131512,1.69159319 11.9597056,1.6867836 C10.9897649,1.6867836 10.0064322,2.44427404 9.19759023,3.81500476 C8.98048106,4.22993369 8.44952469,4.40020779 8.01069792,4.19529725 L7.95133951,4.16483657 C7.52633809,3.93792872 7.3748107,3.42878419 7.61220492,3.02537588 C8.79232242,1.0672424 10.3337108,0.0128255506 11.9613993,0 Z" id="Fill-10"></path>
                    <path d="M3.43866677,15.5450272 C2.79151898,15.2056906 2.19653923,14.7809863 1.67109096,14.2831204 C0.835314746,13.5461126 0.341252758,12.5164584 0.3,11.4253619 C0.3,8.04053269 5.57569171,5.40042434 12.2960845,5.40042434 C13.0347497,5.39589386 13.7731042,5.42764465 14.5083899,5.49548951 C14.9895556,5.54012034 15.3421851,5.9521318 15.2959214,6.41588807 C15.2497743,6.87968178 14.8223304,7.21958001 14.3412036,7.17498662 C13.6596008,7.10639292 12.9746575,7.07464213 12.2894033,7.07992145 C6.25457538,7.07992145 2.05405795,9.38316438 2.04737672,11.4318019 C2.04737672,12.3488681 2.83840418,13.2901593 4.26636335,14.0574202 C4.64222182,14.3043126 4.75953192,14.7873889 4.5364485,15.1694468 C4.31340393,15.5514672 3.82419749,15.7056158 3.41027151,15.5240971 L3.43866677,15.5450272 Z" id="Fill-11"></path>
                    <path d="M12.0507754,23.4 C10.9036238,23.3658014 9.82052592,22.8912672 9.04979816,22.0851031 C7.04519077,20.1847314 5.70033704,16.3742648 5.70033704,11.8968502 C5.69621088,11.1884763 5.72996681,10.4803632 5.80180133,9.77515586 C5.82620463,9.47247179 6.02115596,9.20573726 6.31159847,9.07795802 C6.60219816,8.95006701 6.94294055,8.98121087 7.20253508,9.15902147 C7.46193313,9.33698108 7.59978624,9.63400264 7.56296516,9.93553186 C7.49156291,10.5892177 7.45827853,11.2460701 7.46303344,11.9032578 C7.46303344,17.6909126 9.86858589,21.7305995 12.0304983,21.7241919 C12.9981815,21.7241919 13.9792257,20.9656004 14.786185,19.5976919 C14.8859596,19.394549 15.0672749,19.2378238 15.2896947,19.1621621 C15.5121145,19.0866122 15.7572478,19.0984215 15.9703149,19.1951687 C15.9977834,19.2075368 16.024348,19.2213578 16.0498516,19.2369298 C16.4736674,19.4629463 16.6248421,19.971232 16.3881576,20.3739043 C15.2040277,22.3288523 13.6815918,23.3840183 12.0507754,23.3952316 L12.0507754,23.4 Z" id="Fill-12"></path>
                </g>
                <circle id="椭圆形" fill="#000000" cx="19" cy="19" r="2"></circle>
            </g>
        </g>
    </g>
</svg>