<?xml version="1.0" encoding="UTF-8"?>
<svg width="38px" height="38px" viewBox="0 0 38 38" version="1.1" xmlns="http://www.w3.org/2000/svg" xmlns:xlink="http://www.w3.org/1999/xlink">
    <title>Fram-Selected</title>
    <g id="0630" stroke="none" stroke-width="1" fill="none" fill-rule="evenodd">
        <g id="PC-切图" transform="translate(-125.000000, -484.000000)">
            <g id="编组-11备份" transform="translate(125.000000, 484.000000)">
                <circle id="椭圆形备份-2" fill="#FFFFFF" cx="19" cy="19" r="19"></circle>
                <g id="sending" transform="translate(11.000000, 9.000000)" fill="#000000" fill-rule="nonzero" stroke="#000000" stroke-width="0.4">
                    <path d="M3.443125,0.261925 L19.8686,8.607925 C21.022775,9.194375 21.48455,10.608475 20.89995,11.766375 C20.6741504,12.2140145 20.3109043,12.5775586 19.86345,12.803725 L3.4025,21.11685 C2.246875,21.700475 0.8385,21.23375 0.25675,20.074375 C-0.0145646678,19.5334664 -0.0674486995,18.9089281 0.10905,18.3301 L2.40315,10.807475 C2.427825,10.72655 2.428025,10.6401 2.40365,10.55905 L0.1419,3.037275 C-0.231775,1.7946 0.46945,0.48335 1.7081,0.108475 C2.28459138,-0.0659972965 2.90619656,-0.0110299186 3.443125,0.2619 L3.443125,0.261925 Z M2.17945,1.742275 C1.84125,1.844425 1.649775,2.201575 1.7518,2.5401 L3.946475,9.821675 L9.464825,9.821675 C9.936325,9.821675 10.31855,10.203625 10.31855,10.674775 C10.31855,11.145975 9.9363,11.5279 9.4648,11.5279 L3.942175,11.5279 L1.716975,18.807375 C1.66878771,18.9650504 1.68323972,19.1352331 1.757325,19.282525 C1.91615,19.598325 2.300725,19.72545 2.61625,19.566525 L19.0968,11.263225 C19.214886,11.2037162 19.3116372,11.1090873 19.37375,10.99235 L19.37985,10.980625 L19.38455,10.97115 C19.536925,10.657525 19.410225,10.2784 19.098225,10.120225 L2.653225,1.784075 C2.5065637,1.7097228 2.33688961,1.69475209 2.179475,1.742275 L2.17945,1.742275 Z" id="形状"></path>
                </g>
            </g>
        </g>
    </g>
</svg>