<?xml version="1.0" encoding="UTF-8"?>
<svg width="38px" height="38px" viewBox="0 0 38 38" version="1.1" xmlns="http://www.w3.org/2000/svg" xmlns:xlink="http://www.w3.org/1999/xlink">
    <title>Governance-Default</title>
    <g id="0630" stroke="none" stroke-width="1" fill="none" fill-rule="evenodd">
        <g id="PC-切图" transform="translate(-30.000000, -254.000000)">
            <g id="Governance" transform="translate(30.000000, 254.000000)">
                <circle id="椭圆形备份-4" fill="#F5EFF4" cx="19" cy="19" r="19"></circle>
                <path d="M18.7455067,7.00219517 C18.9930027,6.93706466 19.2653451,6.96635067 19.503871,7.10549081 C19.6528747,7.1924096 19.7768601,7.31639505 19.8637789,7.46539869 L19.8637789,7.46539869 L30.3817049,25.496129 C30.520845,25.7346549 30.5501311,26.0069973 30.4850005,26.2544933 C30.41987,26.5019893 30.260323,26.7246388 30.021797,26.8637789 C29.868861,26.9529916 29.6949806,27 29.517926,27 L29.517926,27 L8.482074,27 C8.20593162,27 7.95593162,26.8880712 7.77496722,26.7071068 C7.59400281,26.5261424 7.482074,26.2761424 7.482074,26 C7.482074,25.8229454 7.5290824,25.649065 7.6182951,25.496129 L7.6182951,25.496129 L18.1362211,7.46539869 C18.2753612,7.22687273 18.4980107,7.06732569 18.7455067,7.00219517 Z" id="三角形" stroke="#000000" stroke-width="2"></path>
                <circle id="椭圆形" stroke="#000000" stroke-width="2" cx="19" cy="20" r="3"></circle>
            </g>
        </g>
    </g>
</svg>