<?xml version="1.0" encoding="UTF-8"?>
<svg width="38px" height="38px" viewBox="0 0 38 38" version="1.1" xmlns="http://www.w3.org/2000/svg" xmlns:xlink="http://www.w3.org/1999/xlink">
    <title>Home-Default</title>
    <g id="页面-1" stroke="none" stroke-width="1" fill="none" fill-rule="evenodd">
        <g id="切图" transform="translate(-30.000000, -21.000000)">
            <g id="Home-Default" transform="translate(30.000000, 21.000000)">
                <circle id="椭圆形" fill="#F5EFF4" cx="19" cy="19" r="19"></circle>
                <g id="shouye" transform="translate(9.000000, 9.000000)" fill-rule="nonzero" stroke="#000000" stroke-linecap="round" stroke-width="2">
                    <path d="M10.000033,0 C9.55903445,0 9.11703594,0.15 8.75103717,0.453 L0.740064059,7.04599999 C0.267821125,7.44195388 -0.00344098166,8.02773539 3.29638219e-05,8.644 L3.29638219e-05,19 C3.29638219e-05,19.5522848 0.447780306,20 1.0000632,20 L8.00003296,20 L8.00003296,16.19 C8.00003296,15.238 9.00003296,14.286 10.000033,14.286 C11.000033,14.286 12.000033,15.238 12.000033,16.19 L12.000033,20 L19.0000027,20 C19.5522856,20 20.000033,19.5522848 20.000033,19 L20.000033,8.644 C20.0035069,8.02773539 19.7322448,7.44195388 19.2600019,7.04599999 L11.2490288,0.453 C10.8983882,0.1607485 10.4564964,0.000478156758 10.000033,0" id="形状"></path>
                </g>
            </g>
        </g>
    </g>
</svg>