<?xml version="1.0" encoding="UTF-8"?>
<svg width="140px" height="48px" viewBox="0 0 140 48" version="1.1" xmlns="http://www.w3.org/2000/svg" xmlns:xlink="http://www.w3.org/1999/xlink">
    <title>logo</title>
    <g id="页面-1" stroke="none" stroke-width="1" fill="none" fill-rule="evenodd">
        <g id="切图" transform="translate(-199.000000, -89.000000)">
            <g id="编组" transform="translate(199.000000, 89.000000)">
                <path d="M68.03,43.17 L75.11,24.48 L71.69,24.48 L67.19,38.1 L62.33,24.48 L59,24.48 L65.96,43.17 L68.03,43.17 Z M79.37,42.69 L79.37,24.48 L76.28,24.48 L76.28,42.69 L79.37,42.69 Z M87.02,43.17 C88.88,43.17 90.345,42.595 91.415,41.445 C92.485,40.295 93.02,38.79 93.02,36.93 C93.02,35.57 92.35,34.39 91.01,33.39 C90.9983333,33.39 90.6685069,33.2096528 90.0205208,32.8489583 L89.7233333,32.6833333 C89.3011111,32.4477778 88.775,32.1533333 88.145,31.8 C86.255,30.74 85.31,29.825 85.31,29.055 C85.31,28.285 85.57,27.67 86.09,27.21 C86.61,26.75 87.25,26.52 88.01,26.52 C89.21,26.52 90.2,27.07 90.98,28.17 L90.98,28.17 L92.42,26.04 C91.2,24.68 89.54,24 87.44,24 C85.92,24 84.655,24.525 83.645,25.575 C82.635,26.625 82.13,27.92 82.13,29.46 C82.13,31.26 83.225,32.645 85.415,33.615 C87.605,34.585 88.89,35.305 89.27,35.775 C89.65,36.245 89.84,36.79 89.84,37.41 C89.84,38.27 89.585,39 89.075,39.6 C88.565,40.2 87.87,40.5 86.99,40.5 C86.25,40.5 85.53,40.21 84.83,39.63 C84.13,39.05 83.65,38.41 83.39,37.71 L83.39,37.71 L81.44,39.63 C82.8,41.99 84.66,43.17 87.02,43.17 Z M100.07,42.93 L103.19,35.34 L105.92,42.93 L107.39,42.93 L112.91,30.84 L109.7,30.84 L106.76,38.55 L103.46,30.45 L102.41,30.45 L99.26,38.58 L96.35,30.84 L93.14,30.84 L98.57,42.93 L100.07,42.93 Z M118.28,43.08 C119.94,43.08 121.19,42.59 122.03,41.61 L122.03,41.61 L122.03,42.69 L124.88,42.69 L124.88,30.84 L122.03,30.84 L122.03,31.95 C121.17,30.95 119.9,30.45 118.22,30.45 C116.64,30.45 115.345,31.055 114.335,32.265 C113.325,33.475 112.82,34.94 112.82,36.66 C112.82,38.38 113.315,39.88 114.305,41.16 C115.295,42.44 116.62,43.08 118.28,43.08 Z M119.09,40.56 C118.11,40.56 117.31,40.21 116.69,39.51 C116.07,38.81 115.76,37.89 115.76,36.75 C115.76,35.61 116.065,34.695 116.675,34.005 C117.285,33.315 118.075,32.97 119.045,32.97 C120.015,32.97 120.81,33.325 121.43,34.035 C122.05,34.745 122.36,35.65 122.36,36.75 C122.36,37.93 122.06,38.86 121.46,39.54 C120.86,40.22 120.07,40.56 119.09,40.56 Z M130.22,47.7 L130.28,41.58 C130.96,42.58 132.17,43.08 133.91,43.08 C135.53,43.08 136.85,42.47 137.87,41.25 C138.89,40.03 139.4,38.51 139.4,36.69 C139.4,35.01 138.885,33.55 137.855,32.31 C136.825,31.07 135.53,30.45 133.97,30.45 C132.31,30.45 131.06,30.94 130.22,31.92 L130.22,31.92 L130.22,30.84 L127.31,30.84 L127.31,47.7 L130.22,47.7 Z M133.16,40.56 C132.3,40.56 131.54,40.17 130.88,39.39 C130.22,38.61 129.89,37.725 129.89,36.735 C129.89,35.745 130.2,34.87 130.82,34.11 C131.44,33.35 132.22,32.97 133.16,32.97 C134.18,32.97 134.98,33.345 135.56,34.095 C136.14,34.845 136.43,35.73 136.43,36.75 C136.43,37.85 136.14,38.76 135.56,39.48 C134.98,40.2 134.18,40.56 133.16,40.56 Z" id="VISwap" fill="#000000" fill-rule="nonzero"></path>
                <g id="编组-32备份">
                    <path d="M14.4768107,47.32 L41.405,0 C32.6848823,1.40234688 25.214437,3.94417392 18.993664,7.62548113 C12.772891,11.3067883 6.72333635,16.5946097 0.845,23.4889452 L14.4768107,47.32 Z" id="路径-5备份-3" fill="#ED1F7A" style="mix-blend-mode: multiply;" transform="translate(21.125000, 23.660000) scale(-1, 1) translate(-21.125000, -23.660000) "></path>
                    <path d="M27.8812993,47.32 L54.925,0 C46.2153729,1.40234688 38.7539147,3.94417392 32.5406255,7.62548113 C26.3273363,11.3067883 20.2687945,16.6111578 14.365,23.5385894 L27.8812993,47.32 Z" id="路径-5备份-4" fill="#0091FF" style="mix-blend-mode: multiply;"></path>
                </g>
            </g>
        </g>
    </g>
</svg>