<?xml version="1.0" encoding="UTF-8"?>
<svg width="38px" height="38px" viewBox="0 0 38 38" version="1.1" xmlns="http://www.w3.org/2000/svg" xmlns:xlink="http://www.w3.org/1999/xlink">
    <title>Mining-Selected</title>
    <g id="0630" stroke="none" stroke-width="1" fill="none" fill-rule="evenodd">
        <g id="PC-切图" transform="translate(-118.000000, -137.000000)">
            <g id="Mining备份" transform="translate(118.000000, 137.000000)">
                <circle id="椭圆形备份-2" fill="#FFFFFF" cx="19" cy="19" r="19"></circle>
                <g id="编组-5" transform="translate(7.000000, 7.000000)" stroke="#000000" stroke-width="2">
                    <path d="M11,2.02072594 C11.9282032,1.48482756 13.0717968,1.48482756 14,2.02072594 L14,2.02072594 L20.8253175,5.96132487 C21.7535208,6.49722325 22.3253175,7.48760431 22.3253175,8.55940108 L22.3253175,8.55940108 L22.3253175,16.4405989 C22.3253175,17.5123957 21.7535208,18.5027767 20.8253175,19.0386751 L20.8253175,19.0386751 L14,22.9792741 C13.0717968,23.5151724 11.9282032,23.5151724 11,22.9792741 L11,22.9792741 L4.17468245,19.0386751 C3.24647922,18.5027767 2.67468245,17.5123957 2.67468245,16.4405989 L2.67468245,16.4405989 L2.67468245,8.55940108 C2.67468245,8.02350269 2.81763165,7.50795824 3.07660624,7.05940108 C3.33558084,6.61084392 3.71058084,6.22927406 4.17468245,5.96132487 L4.17468245,5.96132487 Z" id="多边形"></path>
                    <line x1="12.5" y1="13.5" x2="12.5" y2="21.5" id="直线" stroke-linecap="square"></line>
                    <polyline id="路径-2" points="3 8 12.5 13.5 22 8"></polyline>
                </g>
            </g>
        </g>
    </g>
</svg>