<?xml version="1.0" encoding="UTF-8"?>
<svg width="38px" height="38px" viewBox="0 0 38 38" version="1.1" xmlns="http://www.w3.org/2000/svg" xmlns:xlink="http://www.w3.org/1999/xlink">
    <title>Swap-Selected</title>
    <g id="0630" stroke="none" stroke-width="1" fill="none" fill-rule="evenodd">
        <g id="PC-切图" transform="translate(-118.000000, -79.000000)">
            <g id="Swap备份" transform="translate(118.000000, 79.000000)">
                <circle id="椭圆形备份" fill="#FFFFFF" cx="19" cy="19" r="19"></circle>
                <g id="编组-2" transform="translate(9.000000, 11.000000)" fill="#000000">
                    <rect id="矩形" x="1" y="2" width="17" height="2" rx="1"></rect>
                    <rect id="矩形备份-9" x="3" y="12" width="17" height="2" rx="1"></rect>
                    <g id="jiantou" transform="translate(19.000000, 3.000000) scale(-1, 1) rotate(-90.000000) translate(-19.000000, -3.000000) translate(16.000000, 1.000000)" fill-rule="nonzero">
                        <path d="M0.33011532,4 L5.66150622,4 C5.90967637,4 6.09378115,3.70880797 5.94880279,3.42137041 C5.83286443,3.19091241 3.48904756,0.688792742 3.28864933,0.29611969 C3.15708257,0.037944888 2.84285194,0.0421410559 2.71128519,0.29611969 C2.56386835,0.578919377 0.207859099,3.09848627 0.0443704987,3.43318594 C-0.0755580873,3.67833054 0.0568953853,4 0.33011532,4 Z" id="路径"></path>
                    </g>
                    <g id="jiantou备份" transform="translate(2.000000, 13.000000) rotate(-90.000000) translate(-2.000000, -13.000000) translate(-1.000000, 11.000000)" fill-rule="nonzero">
                        <path d="M0.33011532,4 L5.66150622,4 C5.90967637,4 6.09378115,3.70880797 5.94880279,3.42137041 C5.83286443,3.19091241 3.48904756,0.688792742 3.28864933,0.29611969 C3.15708257,0.037944888 2.84285194,0.0421410559 2.71128519,0.29611969 C2.56386835,0.578919377 0.207859099,3.09848627 0.0443704987,3.43318594 C-0.0755580873,3.67833054 0.0568953853,4 0.33011532,4 Z" id="路径"></path>
                    </g>
                </g>
            </g>
        </g>
    </g>
</svg>